<svg id="Layer_1" data-name="Layer 1" xmlns="http://www.w3.org/2000/svg" viewBox="0 0 393.22 393.22"><defs><style>.cls-1{fill:#f80;}.cls-2{fill:none;stroke:#fff;stroke-miterlimit:10;stroke-width:7px;}</style></defs><title>pd-logo2</title><path class="cls-1" d="M643.64,224.28H574.35a6.32,6.32,0,0,0-6.3,5.23l-.14.8a6.3,6.3,0,0,0,5.77,7.37c10.45.81,16.08,3.22,17,7.51a5.23,5.23,0,0,1,0,2l-7,39.54a6.1,6.1,0,0,1-6.17,5.23H567.35a147.49,147.49,0,0,0-17-.94l-87.79-.27A6.42,6.42,0,0,0,456.4,296l-.27,1.2a6.3,6.3,0,0,0,5.49,7.51q11.46,1.41,12.07,7.64a4.37,4.37,0,0,1-.14,1.34L452,436.86c-.67,3.48-3.21,6.16-7.37,7.9a36.48,36.48,0,0,1-10.18,2.42,6.28,6.28,0,0,0-5.77,5.36l-.13.8a6.37,6.37,0,0,0,6.3,7.24h69.29a6.32,6.32,0,0,0,6.3-5.23l.14-.8a6.3,6.3,0,0,0-5.77-7.37c-10.45-.81-16.08-3.22-17-7.51a5.23,5.23,0,0,1,0-2l7-39.67a6.09,6.09,0,0,1,6.17-5.23h10.54a146.37,146.37,0,0,0,16.93.94V394H615.9a6.42,6.42,0,0,0,6.16-5.23l.27-1.21a6.29,6.29,0,0,0-5.49-7.5q-11.46-1.41-12.07-7.64a4.34,4.34,0,0,1,.14-1.34l21.58-123c.67-3.48,3.21-6.16,7.37-7.91A36.84,36.84,0,0,1,644,237.68a6.28,6.28,0,0,0,5.77-5.36l.13-.8A6.37,6.37,0,0,0,643.64,224.28ZM513.23,368c-4.69-4.29-7-11.12-7-20.37q0-17.08,11.26-26.94c7.5-6.57,18.36-9.79,32.7-9.79h2.29c5.77,1,10.18,2.95,13.26,5.77,4.69,4.42,7,11.26,7,20.5q0,17.1-11.26,26.95c-7.64,6.56-18.5,9.78-32.84,9.78h-1.38C521.1,372.9,516.44,370.9,513.23,368Z" transform="translate(-342.89 -145.82)"/><circle class="cls-2" cx="196.61" cy="196.61" r="193.11"/></svg>